{
	"asset":{
		"generator":"Khronos glTF Blender I/O v4.5.51",
		"version":"2.0"
	},
	"extensionsUsed":[
		"KHR_materials_unlit"
	],
	"scene":0,
	"scenes":[
		{
			"name":"Scene",
			"nodes":[
				1,
				2,
				3,
				4
			]
		}
	],
	"nodes":[
		{
			"name":"ringMarker",
			"translation":[
				0,
				-0.18189465999603271,
				0
			]
		},
		{
			"children":[
				0
			],
			"mesh":0,
			"name":"ring"
		},
		{
			"mesh":1,
			"name":"shield"
		},
		{
			"mesh":2,
			"name":"star"
		},
		{
			"mesh":3,
			"name":"ball"
		}
	],
	"materials":[
		{
			"doubleSided":true,
			"extensions":{
				"KHR_materials_unlit":{}
			},
			"name":"ringMaterial",
			"pbrMetallicRoughness":{
				"baseColorTexture":{
					"index":0
				},
				"metallicFactor":0,
				"roughnessFactor":0.9
			}
		},
		{
			"doubleSided":true,
			"extensions":{
				"KHR_materials_unlit":{}
			},
			"name":"shieldMaterial",
			"pbrMetallicRoughness":{
				"baseColorTexture":{
					"index":1
				},
				"metallicFactor":0,
				"roughnessFactor":0.9
			}
		},
		{
			"doubleSided":true,
			"name":"starMaterial",
			"pbrMetallicRoughness":{
				"baseColorFactor":[
					0.7249475121498108,
					0.8003629446029663,
					0,
					1
				],
				"metallicFactor":0,
				"roughnessFactor":0.5
			}
		},
		{
			"doubleSided":true,
			"name":"Material.001",
			"pbrMetallicRoughness":{
				"baseColorTexture":{
					"index":2
				},
				"metallicFactor":0,
				"roughnessFactor":0.5
			}
		}
	],
	"meshes":[
		{
			"name":"ring",
			"primitives":[
				{
					"attributes":{
						"POSITION":0,
						"NORMAL":1,
						"TEXCOORD_0":2
					},
					"indices":3,
					"material":0
				}
			]
		},
		{
			"name":"shield",
			"primitives":[
				{
					"attributes":{
						"POSITION":4,
						"NORMAL":5,
						"TEXCOORD_0":6
					},
					"indices":7,
					"material":1
				}
			]
		},
		{
			"name":"star",
			"primitives":[
				{
					"attributes":{
						"POSITION":8,
						"NORMAL":9,
						"TEXCOORD_0":10
					},
					"indices":11,
					"material":2
				}
			]
		},
		{
			"name":"ball",
			"primitives":[
				{
					"attributes":{
						"POSITION":12,
						"NORMAL":13,
						"TEXCOORD_0":14
					},
					"indices":15,
					"material":3
				}
			]
		}
	],
	"textures":[
		{
			"sampler":0,
			"source":0
		},
		{
			"sampler":0,
			"source":1
		},
		{
			"sampler":0,
			"source":2
		}
	],
	"images":[
		{
			"mimeType":"image/jpeg",
			"name":"bakedRingTexture",
			"uri":"bakedRingTexture.jpg"
		},
		{
			"mimeType":"image/jpeg",
			"name":"bakedShieldTexture",
			"uri":"bakedShieldTexture.jpg"
		},
		{
			"mimeType":"image/jpeg",
			"name":"baseColor",
			"uri":"baseColor.jpg"
		}
	],
	"accessors":[
		{
			"bufferView":0,
			"componentType":5126,
			"count":170,
			"max":[
				0.5399999618530273,
				0.03999999910593033,
				0.5679999589920044
			],
			"min":[
				-0.5400000810623169,
				-0.07999999821186066,
				-0.5120000839233398
			],
			"type":"VEC3"
		},
		{
			"bufferView":1,
			"componentType":5126,
			"count":170,
			"type":"VEC3"
		},
		{
			"bufferView":2,
			"componentType":5126,
			"count":170,
			"type":"VEC2"
		},
		{
			"bufferView":3,
			"componentType":5123,
			"count":432,
			"type":"SCALAR"
		},
		{
			"bufferView":4,
			"componentType":5126,
			"count":583,
			"max":[
				1.6396514177322388,
				1.5343682765960693,
				-0.5119336843490601
			],
			"min":[
				-1.560348629951477,
				-0.46563175320625305,
				-0.8410463333129883
			],
			"type":"VEC3"
		},
		{
			"bufferView":5,
			"componentType":5126,
			"count":583,
			"type":"VEC3"
		},
		{
			"bufferView":6,
			"componentType":5126,
			"count":583,
			"type":"VEC2"
		},
		{
			"bufferView":7,
			"componentType":5123,
			"count":1287,
			"type":"SCALAR"
		},
		{
			"bufferView":8,
			"componentType":5126,
			"count":6168,
			"max":[
				0.06610153615474701,
				0.06926269084215164,
				0.01827285997569561
			],
			"min":[
				-0.06610153615474701,
				-0.05708516389131546,
				-0.01827285997569561
			],
			"type":"VEC3"
		},
		{
			"bufferView":9,
			"componentType":5126,
			"count":6168,
			"type":"VEC3"
		},
		{
			"bufferView":10,
			"componentType":5126,
			"count":6168,
			"type":"VEC2"
		},
		{
			"bufferView":11,
			"componentType":5123,
			"count":36000,
			"type":"SCALAR"
		},
		{
			"bufferView":12,
			"componentType":5126,
			"count":24354,
			"max":[
				0.23004049062728882,
				0.23004049062728882,
				0.2354738861322403
			],
			"min":[
				-0.23004046082496643,
				-0.23004049062728882,
				-0.2354738861322403
			],
			"type":"VEC3"
		},
		{
			"bufferView":13,
			"componentType":5126,
			"count":24354,
			"type":"VEC3"
		},
		{
			"bufferView":14,
			"componentType":5126,
			"count":24354,
			"type":"VEC2"
		},
		{
			"bufferView":15,
			"componentType":5123,
			"count":135744,
			"type":"SCALAR"
		}
	],
	"bufferViews":[
		{
			"buffer":0,
			"byteLength":2040,
			"byteOffset":0,
			"target":34962
		},
		{
			"buffer":0,
			"byteLength":2040,
			"byteOffset":2040,
			"target":34962
		},
		{
			"buffer":0,
			"byteLength":1360,
			"byteOffset":4080,
			"target":34962
		},
		{
			"buffer":0,
			"byteLength":864,
			"byteOffset":5440,
			"target":34963
		},
		{
			"buffer":0,
			"byteLength":6996,
			"byteOffset":6304,
			"target":34962
		},
		{
			"buffer":0,
			"byteLength":6996,
			"byteOffset":13300,
			"target":34962
		},
		{
			"buffer":0,
			"byteLength":4664,
			"byteOffset":20296,
			"target":34962
		},
		{
			"buffer":0,
			"byteLength":2574,
			"byteOffset":24960,
			"target":34963
		},
		{
			"buffer":0,
			"byteLength":74016,
			"byteOffset":27536,
			"target":34962
		},
		{
			"buffer":0,
			"byteLength":74016,
			"byteOffset":101552,
			"target":34962
		},
		{
			"buffer":0,
			"byteLength":49344,
			"byteOffset":175568,
			"target":34962
		},
		{
			"buffer":0,
			"byteLength":72000,
			"byteOffset":224912,
			"target":34963
		},
		{
			"buffer":0,
			"byteLength":292248,
			"byteOffset":296912,
			"target":34962
		},
		{
			"buffer":0,
			"byteLength":292248,
			"byteOffset":589160,
			"target":34962
		},
		{
			"buffer":0,
			"byteLength":194832,
			"byteOffset":881408,
			"target":34962
		},
		{
			"buffer":0,
			"byteLength":271488,
			"byteOffset":1076240,
			"target":34963
		}
	],
	"samplers":[
		{
			"magFilter":9729,
			"minFilter":9987
		}
	],
	"buffers":[
		{
			"byteLength":1347728,
			"uri":"basketball.bin"
		}
	]
}
